<?xml version="1.0" standalone="no"?>
<!DOCTYPE svg PUBLIC "-//W3C//DTD SVG 20010904//EN"
 "http://www.w3.org/TR/2001/REC-SVG-20010904/DTD/svg10.dtd">
<svg version="1.0" xmlns="http://www.w3.org/2000/svg"
 width="503.000000pt" height="238.000000pt" viewBox="0 0 503.000000 238.000000"
 preserveAspectRatio="xMidYMid meet">

<g transform="translate(0.000000,238.000000) scale(0.100000,-0.100000)"
fill="#000000" stroke="none">
<path d="M76 1834 c-8 -20 -8 -1388 0 -1408 8 -21 30 -21 38 0 8 20 8 1388 0
1408 -3 9 -12 16 -19 16 -7 0 -16 -7 -19 -16z"/>
<path d="M682 1808 c-6 -6 -12 -18 -12 -25 0 -7 47 -77 105 -155 l105 -142 0
-147 c0 -121 3 -149 16 -160 11 -9 20 -10 32 -2 14 8 18 34 22 159 l5 149 103
143 c56 78 102 148 102 155 0 17 -20 37 -37 37 -7 0 -54 -59 -105 -130 -50
-72 -96 -129 -102 -127 -6 2 -51 59 -101 128 -50 68 -98 125 -106 127 -8 1
-20 -3 -27 -10z"/>
<path d="M1425 1806 c-61 -19 -122 -62 -156 -109 -52 -71 -62 -104 -63 -202
-1 -77 3 -98 25 -145 33 -69 87 -122 158 -158 79 -38 190 -38 274 1 49 22 58
30 55 49 -2 19 -9 23 -33 22 -16 -1 -48 -9 -70 -17 -120 -48 -265 10 -316 125
-31 72 -31 174 1 240 25 54 76 103 129 126 52 22 147 19 205 -7 61 -26 73 -26
82 1 19 62 -173 111 -291 74z"/>
<path d="M297 1803 c-4 -3 -7 -145 -7 -314 l0 -309 23 -5 c12 -3 96 -4 187 -3
l165 3 0 30 0 30 -152 3 -153 3 0 262 c0 144 -3 272 -6 285 -6 21 -42 31 -57
15z"/>
<path d="M1847 1804 c-4 -4 -7 -143 -7 -309 0 -264 2 -304 16 -316 11 -9 20
-10 32 -2 14 8 18 34 22 149 l5 139 175 0 175 0 5 -139 c4 -115 8 -141 22
-149 12 -8 21 -7 32 2 14 12 16 49 14 320 l-3 306 -30 0 -30 0 -3 -137 -3
-138 -179 0 -179 0 -3 138 -3 137 -25 3 c-14 2 -29 0 -33 -4z"/>
<path d="M2517 1803 c-4 -3 -7 -142 -7 -308 0 -245 3 -305 14 -314 9 -8 69
-11 191 -9 159 3 179 5 189 21 9 15 7 21 -8 33 -15 11 -55 14 -168 14 l-148 0
0 115 0 115 134 0 c139 0 164 7 150 44 -5 14 -26 16 -145 16 l-139 0 0 110 0
110 154 0 c160 0 184 6 170 44 -5 14 -30 16 -193 16 -103 0 -191 -3 -194 -7z"/>
<path d="M3047 1803 c-4 -3 -7 -142 -7 -308 0 -245 3 -305 14 -314 9 -8 69
-11 191 -9 159 3 179 5 189 21 9 15 7 21 -8 33 -15 11 -55 14 -168 14 l-148 0
0 115 0 115 135 0 c118 0 135 2 143 18 20 38 6 42 -139 42 l-139 0 0 110 0
110 154 0 c160 0 184 6 170 44 -5 14 -30 16 -193 16 -103 0 -191 -3 -194 -7z"/>
<path d="M1657 1090 c-92 -24 -169 -89 -210 -178 -16 -37 -21 -67 -21 -142 -1
-82 3 -103 25 -150 113 -240 445 -241 557 -2 23 49 27 70 27 152 -1 75 -5 105
-22 142 -30 65 -95 132 -153 157 -58 25 -149 34 -203 21z m156 -76 c52 -18
107 -72 133 -131 23 -54 23 -166 1 -225 -19 -50 -88 -121 -135 -139 -46 -18
-135 -13 -179 9 -47 25 -100 81 -120 131 -9 20 -16 63 -16 96 -4 198 143 318
316 259z"/>
<path d="M3434 1090 c-102 -21 -195 -94 -236 -185 -17 -39 -22 -69 -23 -135 0
-77 3 -92 33 -153 61 -123 172 -184 316 -175 89 6 166 41 166 74 0 33 -30 37
-85 13 -58 -26 -154 -29 -205 -7 -97 41 -151 129 -152 242 0 78 10 112 49 169
57 82 185 119 283 82 68 -26 104 -25 108 3 7 46 -156 93 -254 72z"/>
<path d="M4494 1090 c-55 -13 -105 -51 -125 -94 -22 -48 -23 -67 -8 -120 17
-60 57 -90 167 -127 126 -41 149 -53 167 -89 35 -67 0 -130 -85 -150 -65 -15
-127 -1 -194 45 -49 33 -70 36 -80 9 -9 -22 3 -40 44 -69 56 -39 106 -54 180
-54 120 -1 207 61 217 154 12 104 -32 153 -189 206 -126 43 -168 76 -168 130
0 61 93 117 171 103 19 -4 59 -20 90 -37 32 -17 63 -27 73 -24 25 10 19 43
-14 71 -55 46 -163 66 -246 46z"/>
<path d="M295 1077 c-3 -7 -4 -149 -3 -317 l3 -305 25 0 25 0 3 128 3 127 115
0 c132 0 173 14 213 75 26 39 38 112 27 170 -8 43 -59 103 -103 121 -44 19
-301 20 -308 1z m311 -89 c28 -31 34 -45 34 -83 0 -104 -43 -135 -190 -135
l-100 0 0 123 c0 68 3 127 8 131 4 4 53 6 110 4 l104 -3 34 -37z"/>
<path d="M852 1078 c-9 -9 -12 -91 -12 -309 0 -314 2 -326 47 -317 16 3 18 17
21 131 l3 129 129 -4 c163 -4 171 -10 187 -129 12 -88 37 -129 80 -129 33 0
38 23 13 57 -13 19 -23 51 -27 89 -7 69 -24 108 -58 130 l-24 16 35 30 c48 42
64 78 64 139 0 66 -31 123 -86 155 -38 23 -50 24 -200 24 -111 0 -164 -4 -172
-12z m351 -86 c28 -29 32 -39 32 -86 0 -40 -6 -62 -21 -83 -34 -46 -59 -53
-186 -53 l-118 0 0 123 c0 68 3 127 8 131 4 5 62 6 130 4 l123 -4 32 -32z"/>
<path d="M2452 1078 c-7 -9 -12 -97 -14 -256 l-3 -242 -31 -31 c-58 -58 -131
-56 -195 7 -40 39 -72 42 -77 7 -5 -32 75 -110 123 -119 55 -10 133 1 163 23
14 10 40 36 56 57 l31 38 0 261 c0 258 0 262 -21 265 -11 2 -26 -3 -32 -10z"/>
<path d="M2692 1078 c-14 -14 -17 -594 -4 -616 7 -9 53 -12 198 -10 l189 3 0
25 0 25 -163 3 -163 2 3 118 3 117 138 3 c111 2 139 5 144 17 3 9 0 22 -7 30
-10 12 -40 15 -147 15 l-134 0 3 108 3 107 155 3 c85 1 158 6 163 11 5 5 6 18
2 30 -6 20 -12 21 -189 21 -128 0 -186 -4 -194 -12z"/>
<path d="M3764 1075 c-15 -38 2 -45 106 -45 l100 0 0 -278 c0 -288 2 -302 42
-302 34 0 38 33 38 309 l0 270 103 3 c101 3 102 3 102 28 l0 25 -243 3 c-209
2 -243 0 -248 -13z"/>
</g>
</svg>
