<?xml version="1.0" standalone="no"?>
<!DOCTYPE svg PUBLIC "-//W3C//DTD SVG 20010904//EN"
 "http://www.w3.org/TR/2001/REC-SVG-20010904/DTD/svg10.dtd">
<svg version="1.0" xmlns="http://www.w3.org/2000/svg"
 width="1078.000000pt" height="808.000000pt" viewBox="0 0 1078.000000 808.000000"
 preserveAspectRatio="xMidYMid meet">

<g transform="translate(0.000000,808.000000) scale(0.100000,-0.100000)"
fill="#000000" stroke="none">
<path d="M6472 7158 c2 -38 7 -61 13 -58 6 3 10 15 10 28 -1 18 5 22 27 22 24
0 28 -4 28 -30 0 -16 5 -30 10 -30 6 0 10 28 10 65 0 37 -4 65 -10 65 -5 0
-10 -11 -10 -25 0 -21 -5 -25 -29 -25 -25 0 -28 3 -23 25 3 19 0 25 -12 25
-14 0 -16 -10 -14 -62z"/>
<path d="M6590 7210 c0 -5 9 -10 20 -10 18 0 20 -7 20 -55 0 -30 5 -55 10 -55
6 0 10 25 10 55 0 42 3 55 15 55 8 0 15 5 15 10 0 6 -20 10 -45 10 -25 0 -45
-4 -45 -10z"/>
<path d="M6700 7155 c0 -77 20 -89 21 -12 l1 52 15 -48 c8 -27 20 -46 26 -44
6 2 18 23 26 48 l16 44 3 -52 c4 -76 22 -66 22 12 0 57 -2 65 -19 65 -13 0
-22 -13 -32 -47 l-13 -48 -15 48 c-10 33 -20 47 -33 47 -16 0 -18 -9 -18 -65z"/>
<path d="M6860 7155 l0 -65 35 0 c19 0 35 5 35 10 0 6 -11 10 -25 10 -24 0
-25 3 -25 55 0 30 -4 55 -10 55 -6 0 -10 -28 -10 -65z"/>
<path d="M6050 7030 c-43 -43 -10 -125 47 -118 15 2 28 8 30 14 2 7 -5 10 -21
7 -18 -4 -29 2 -42 21 -24 38 -6 76 36 76 16 0 30 5 30 10 0 18 -59 11 -80
-10z"/>
<path d="M7140 6975 c0 -58 -2 -65 -20 -65 -11 0 -20 -7 -20 -15 0 -19 20 -19
48 1 19 13 22 24 22 80 0 50 -3 64 -15 64 -12 0 -15 -14 -15 -65z"/>
<path d="M7212 7028 c-22 -22 -14 -57 18 -73 39 -20 40 -45 1 -45 -39 0 -48
-16 -15 -24 33 -9 74 17 74 45 0 12 -14 28 -35 41 -41 23 -41 43 -2 43 16 -1
27 5 27 12 0 16 -52 17 -68 1z"/>
<path d="M6190 6994 c0 -21 -4 -25 -20 -21 -11 3 -20 1 -20 -4 0 -5 9 -9 20
-9 15 0 20 -7 20 -25 0 -14 5 -25 10 -25 6 0 10 11 10 24 0 18 7 26 23 29 l22
4 -22 2 c-17 1 -23 7 -23 26 0 14 -4 25 -10 25 -5 0 -10 -12 -10 -26z"/>
<path d="M6310 6994 c0 -21 -4 -25 -20 -21 -11 3 -20 1 -20 -4 0 -5 9 -9 20
-9 13 0 20 -7 20 -19 0 -11 5 -23 10 -26 6 -3 10 5 10 19 0 18 6 26 23 29 l22
4 -22 2 c-17 1 -23 7 -23 26 0 14 -4 25 -10 25 -5 0 -10 -12 -10 -26z"/>
<path d="M6539 6953 c-63 -33 -116 -97 -125 -153 l-6 -38 -63 -4 c-50 -3 -70
-10 -100 -32 -41 -32 -75 -95 -75 -141 0 -64 54 -142 113 -164 38 -15 695 -15
734 0 64 24 113 95 113 163 0 46 -13 77 -48 117 -16 19 -32 49 -35 68 -17 87
-99 149 -182 138 -33 -5 -46 -2 -57 10 -7 9 -35 27 -63 39 -70 33 -136 32
-206 -3z m184 -27 c18 -8 40 -22 51 -30 18 -15 18 -16 -7 -46 -33 -39 -51 -98
-35 -117 14 -17 18 -12 37 44 28 85 112 117 182 70 40 -27 59 -60 59 -104 0
-22 6 -36 21 -43 31 -17 59 -70 59 -113 0 -50 -23 -93 -63 -117 -30 -19 -52
-20 -377 -20 -387 0 -389 0 -423 73 -21 44 -21 80 -1 123 25 51 69 74 147 74
l65 0 6 44 c10 63 55 128 107 154 51 26 125 29 172 8z"/>
<path d="M7690 6670 c0 -7 197 -10 570 -10 373 0 570 3 570 10 0 7 -197 10
-570 10 -373 0 -570 -3 -570 -10z"/>
<path d="M5730 6605 c0 -37 4 -65 10 -65 6 0 10 11 10 25 0 20 5 25 25 25 17
0 28 7 34 23 13 34 -4 57 -44 57 l-35 0 0 -65z m60 26 c0 -10 -9 -21 -20 -24
-16 -4 -20 0 -20 19 0 17 6 24 20 24 13 0 20 -7 20 -19z"/>
<path d="M5840 6605 c0 -37 4 -65 10 -65 6 0 10 14 10 30 0 27 3 30 30 30 27
0 30 -3 30 -30 0 -16 5 -30 10 -30 6 0 10 28 10 65 0 37 -4 65 -10 65 -5 0
-10 -11 -10 -25 0 -21 -5 -25 -30 -25 -25 0 -30 4 -30 25 0 14 -4 25 -10 25
-6 0 -10 -28 -10 -65z"/>
<path d="M5970 6606 c0 -62 15 -92 22 -44 2 14 12 24 27 28 60 14 51 73 -13
78 l-36 3 0 -65z m66 32 c8 -12 -24 -40 -37 -32 -5 3 -9 14 -9 25 0 21 34 27
46 7z"/>
<path d="M7276 6624 c-24 -24 -20 -80 6 -98 23 -17 68 -22 68 -8 0 4 -15 12
-32 17 -23 7 -34 17 -36 33 -4 29 26 65 50 59 10 -3 21 -1 24 4 9 16 -64 10
-80 -7z"/>
<path d="M7381 6626 c-15 -18 -5 -41 25 -55 32 -14 26 -36 -9 -36 -32 1 -36
-11 -7 -20 26 -8 60 11 60 35 0 10 -12 27 -27 38 -26 19 -25 49 3 38 7 -3 16
-1 19 4 10 16 -51 12 -64 -4z"/>
<path d="M7481 6626 c-15 -18 -5 -41 25 -55 32 -14 26 -36 -9 -36 -30 1 -36
-12 -11 -22 23 -9 64 14 64 36 0 11 -12 28 -27 39 -26 19 -25 49 3 38 7 -3 16
-1 19 4 10 16 -51 12 -64 -4z"/>
<path d="M4610 6590 c0 -6 138 -10 395 -10 257 0 395 4 395 10 0 6 -138 10
-395 10 -257 0 -395 -4 -395 -10z"/>
<path d="M3642 6424 c-34 -23 -27 -83 11 -104 24 -13 30 -13 55 0 37 21 44 81
10 104 -12 9 -29 16 -38 16 -9 0 -26 -7 -38 -16z m73 -34 c8 -26 -11 -50 -40
-50 -25 0 -39 23 -30 51 9 27 61 26 70 -1z"/>
<path d="M9431 6413 c1 -17 3 -21 6 -10 2 9 11 17 19 17 8 0 12 5 9 10 -13 21
-35 10 -34 -17z"/>
<path d="M9600 6429 c0 -5 14 -9 32 -9 36 0 31 12 -7 16 -14 1 -25 -2 -25 -7z"/>
<path d="M9694 6428 c-3 -4 12 -8 32 -8 21 0 34 3 31 7 -10 9 -58 10 -63 1z"/>
<path d="M9815 6430 l-30 -8 33 -1 c17 0 32 4 32 9 0 6 -1 9 -2 9 -2 -1 -16
-5 -33 -9z"/>
<path d="M4334 6420 c-47 -19 -54 -45 -54 -198 l0 -144 29 -29 29 -29 561 0
c389 0 567 3 584 11 40 18 47 50 47 199 0 132 -1 140 -24 167 l-24 28 -564 2
c-309 1 -573 -2 -584 -7z m1144 -36 c21 -14 22 -22 22 -159 0 -137 -1 -145
-22 -159 -20 -14 -91 -16 -575 -16 -540 0 -553 0 -573 20 -18 18 -20 33 -20
155 0 122 2 137 20 155 20 20 33 20 573 20 484 0 555 -2 575 -16z"/>
<path d="M4360 6350 c-17 -17 -20 -33 -20 -105 0 -69 3 -85 15 -85 12 0 15 15
15 79 0 53 4 82 13 89 8 7 67 13 137 14 88 2 125 7 128 16 3 9 -28 12 -132 12
-123 0 -138 -2 -156 -20z"/>
<path d="M4700 6355 c0 -13 24 -15 182 -13 134 2 182 6 186 16 3 9 -38 12
-182 12 -160 0 -186 -2 -186 -15z"/>
<path d="M4925 6291 c-13 -22 -55 -154 -50 -159 8 -8 10 -2 38 82 24 72 29
104 12 77z"/>
<path d="M4798 6234 c-27 -13 -48 -28 -48 -32 0 -7 83 -52 95 -52 3 0 5 4 5 9
0 5 -19 16 -42 26 l-43 17 40 20 c46 23 50 26 44 32 -2 2 -25 -7 -51 -20z"/>
<path d="M4960 6251 c0 -4 19 -17 43 -28 l42 -21 -42 -18 c-24 -9 -43 -21 -43
-26 0 -12 4 -11 55 14 25 12 45 27 45 34 0 6 -22 21 -50 32 -27 12 -50 18 -50
13z"/>
<path d="M9513 6423 c9 -2 25 -2 35 0 9 3 1 5 -18 5 -19 0 -27 -2 -17 -5z"/>
<path d="M9883 6395 c0 -22 2 -30 4 -17 2 12 2 30 0 40 -3 9 -5 -1 -4 -23z"/>
<path d="M8225 6399 c-4 -6 3 -21 16 -35 17 -18 25 -21 36 -12 11 9 10 15 -8
35 -25 25 -35 28 -44 12z"/>
<path d="M8950 6385 c-16 -17 -20 -29 -14 -35 7 -7 18 -2 34 15 16 17 20 29
14 35 -7 7 -18 2 -34 -15z"/>
<path d="M9432 6330 c0 -19 2 -27 5 -17 2 9 2 25 0 35 -3 9 -5 1 -5 -18z"/>
<path d="M9882 6300 c0 -19 2 -27 5 -17 2 9 2 25 0 35 -3 9 -5 1 -5 -18z"/>
<path d="M8324 6299 c-3 -6 5 -23 19 -37 23 -23 27 -24 33 -8 4 10 -1 25 -11
36 -21 23 -31 25 -41 9z"/>
<path d="M8851 6286 c-16 -16 -19 -26 -11 -31 13 -8 62 34 54 46 -8 14 -19 10
-43 -15z"/>
<path d="M5740 6265 c0 -13 45 -15 345 -15 300 0 345 2 345 15 0 13 -45 15
-345 15 -300 0 -345 -2 -345 -15z"/>
<path d="M6542 6268 c6 -16 688 -19 688 -3 0 6 -124 11 -346 13 -275 2 -345 0
-342 -10z"/>
<path d="M8561 6259 c-11 -12 -44 -27 -73 -34 -60 -14 -139 -69 -222 -153
l-48 -50 38 -43 c64 -70 188 -156 238 -163 24 -4 52 -16 61 -26 25 -27 90 -27
105 -1 7 13 26 22 56 27 56 8 143 66 223 148 l55 56 -30 37 c-41 51 -184 161
-210 162 -33 1 -85 22 -106 43 -24 24 -63 23 -87 -3z m49 -73 c0 -44 4 -55 18
-59 10 -3 7 -5 -10 -6 -62 -3 -108 -47 -108 -105 0 -31 44 -84 73 -88 20 -3
22 -10 25 -67 2 -48 0 -62 -10 -59 -7 3 -14 17 -16 31 -3 20 -13 31 -39 42
-34 14 -38 14 -58 -5 -20 -19 -23 -19 -35 -5 -11 14 -10 19 7 37 20 19 20 22
4 59 -13 32 -21 39 -43 39 -23 0 -28 5 -28 24 0 19 4 22 24 19 19 -4 27 2 43
35 l20 41 -21 20 c-19 20 -19 22 -3 38 16 16 18 16 38 -3 19 -20 22 -20 55 -5
27 12 34 21 34 43 0 18 5 28 15 28 11 0 15 -13 15 -54z m17 2 c-3 -8 -6 -5 -6
6 -1 11 2 17 5 13 3 -3 4 -12 1 -19z m-199 -81 c-2 -13 -14 -24 -32 -28 -34
-9 -46 -24 -46 -59 0 -32 17 -50 46 -50 29 0 42 -36 21 -58 -14 -13 -19 -12
-54 16 -64 51 -94 87 -87 105 3 9 33 39 67 66 47 39 64 48 74 39 8 -6 13 -20
11 -31z m463 -25 l63 -59 -49 -47 c-27 -27 -60 -55 -73 -64 -21 -14 -25 -14
-39 0 -21 22 -2 56 34 60 24 3 28 8 31 41 4 44 -11 67 -43 67 -27 0 -40 27
-24 46 19 23 33 17 100 -44z m-239 -19 c24 -21 23 -58 -2 -83 -57 -57 -138 24
-88 88 15 17 68 15 90 -5z m62 -72 c3 -5 -2 -15 -12 -22 -15 -12 -16 -12 -5 2
7 9 10 19 6 22 -3 4 -4 7 0 7 3 0 8 -4 11 -9z m46 -111 c6 9 10 10 10 3 0 -24
-23 -25 -44 -2 l-21 23 23 -19 c20 -16 25 -17 32 -5z"/>
<path d="M8582 6048 c-18 -18 -14 -46 9 -58 26 -14 49 3 49 35 0 32 -35 46
-58 23z"/>
<path d="M9432 6230 c0 -19 2 -27 5 -17 2 9 2 25 0 35 -3 9 -5 1 -5 -18z"/>
<path d="M9610 6201 c0 -37 12 -37 14 0 0 12 7 24 15 27 10 3 12 -1 8 -18 -4
-16 -3 -20 5 -12 16 16 2 41 -21 39 -17 -1 -21 -8 -21 -36z"/>
<path d="M9674 6219 c0 -14 6 -26 13 -26 6 0 11 8 10 18 -1 10 -4 16 -8 13 -4
-2 -9 2 -12 8 -2 7 -4 1 -3 -13z"/>
<path d="M9882 6200 c0 -19 2 -27 5 -17 2 9 2 25 0 35 -3 9 -5 1 -5 -18z"/>
<path d="M5910 6167 c0 -20 -6 -27 -27 -30 l-28 -4 28 -2 c22 -1 27 -6 28 -28
1 -28 1 -28 8 -3 4 14 17 27 31 31 l25 6 -25 4 c-15 2 -25 11 -25 21 0 9 -4
20 -8 24 -4 4 -7 -4 -7 -19z"/>
<path d="M9433 6135 c0 -22 2 -30 4 -17 2 12 2 30 0 40 -3 9 -5 -1 -4 -23z"/>
<path d="M7320 6135 c0 -8 7 -15 15 -15 8 0 15 7 15 15 0 8 -7 15 -15 15 -8 0
-15 -7 -15 -15z"/>
<path d="M7390 6135 c0 -8 7 -15 15 -15 8 0 15 7 15 15 0 8 -7 15 -15 15 -8 0
-15 -7 -15 -15z"/>
<path d="M7460 6135 c0 -8 7 -15 15 -15 8 0 15 7 15 15 0 8 -7 15 -15 15 -8 0
-15 -7 -15 -15z"/>
<path d="M7530 6136 c0 -10 9 -16 21 -16 24 0 21 23 -4 28 -10 2 -17 -3 -17
-12z"/>
<path d="M7600 6135 c0 -8 9 -15 20 -15 11 0 20 7 20 15 0 8 -9 15 -20 15 -11
0 -20 -7 -20 -15z"/>
<path d="M7670 6135 c0 -8 9 -15 20 -15 11 0 20 7 20 15 0 8 -9 15 -20 15 -11
0 -20 -7 -20 -15z"/>
<path d="M7750 6135 c0 -8 7 -15 15 -15 8 0 15 7 15 15 0 8 -7 15 -15 15 -8 0
-15 -7 -15 -15z"/>
<path d="M7820 6135 c0 -8 7 -15 15 -15 8 0 15 7 15 15 0 8 -7 15 -15 15 -8 0
-15 -7 -15 -15z"/>
<path d="M7890 6135 c0 -8 7 -15 15 -15 8 0 15 7 15 15 0 8 -7 15 -15 15 -8 0
-15 -7 -15 -15z"/>
<path d="M7960 6135 c0 -8 7 -15 15 -15 8 0 15 7 15 15 0 8 -7 15 -15 15 -8 0
-15 -7 -15 -15z"/>
<path d="M8030 6135 c0 -8 5 -15 10 -15 6 0 10 7 10 15 0 8 -4 15 -10 15 -5 0
-10 -7 -10 -15z"/>
<path d="M9883 6105 c0 -22 2 -30 4 -17 2 12 2 30 0 40 -3 9 -5 -1 -4 -23z"/>
<path d="M3110 6081 c0 -26 -4 -30 -32 -33 -18 -2 -33 -7 -33 -13 0 -5 15 -11
33 -13 28 -3 32 -7 32 -33 0 -16 5 -29 10 -29 6 0 10 13 10 29 0 26 4 30 33
33 17 2 32 8 32 13 0 6 -15 11 -32 13 -29 3 -33 7 -33 33 0 16 -4 29 -10 29
-5 0 -10 -13 -10 -29z"/>
<path d="M9432 6040 c0 -19 2 -27 5 -17 2 9 2 25 0 35 -3 9 -5 1 -5 -18z"/>
<path d="M7011 5972 c-28 -43 -51 -81 -51 -85 0 -4 63 -81 141 -172 l141 -164
126 147 c69 81 134 157 144 168 19 22 19 22 -34 103 l-53 81 -181 0 -181 0
-52 -78z m176 -8 l-21 -45 -17 22 c-9 13 -24 34 -32 48 l-15 26 53 -3 54 -4
-22 -44z m172 19 c-41 -69 -45 -70 -66 -22 l-19 44 50 6 c28 3 52 6 54 7 2 1
-6 -15 -19 -35z m-255 -38 l36 -55 -70 0 c-38 0 -70 2 -70 5 0 4 63 104 66
105 1 0 18 -25 38 -55z m350 0 l36 -55 -75 0 -75 0 36 55 c20 30 38 55 39 55
1 0 19 -25 39 -55z m-191 0 c24 -51 22 -55 -29 -55 -25 0 -44 3 -42 8 24 49
43 82 48 82 3 0 14 -16 23 -35z m-185 -92 c-10 -2 -26 -2 -35 0 -10 3 -2 5 17
5 19 0 27 -2 18 -5z m185 0 c-7 -2 -19 -2 -25 0 -7 3 -2 5 12 5 14 0 19 -2 13
-5z m-192 -40 c13 -16 12 -17 -3 -4 -10 7 -18 15 -18 17 0 8 8 3 21 -13z m232
-98 c-3 -9 -8 -14 -10 -11 -3 3 -2 9 2 15 9 16 15 13 8 -4z m-116 -19 c-3 -7
0 -20 6 -27 10 -11 9 -11 -5 0 -15 11 -15 41 -1 41 3 0 3 -6 0 -14z m63 -16
c0 -5 -2 -10 -4 -10 -3 0 -8 5 -11 10 -3 6 -1 10 4 10 6 0 11 -4 11 -10z m43
-15 c-3 -9 -8 -14 -10 -11 -3 3 -2 9 2 15 9 16 15 13 8 -4z"/>
<path d="M9880 6015 c0 -20 -5 -25 -25 -25 -14 0 -25 -4 -25 -10 0 -5 14 -10
30 -10 28 0 30 3 30 35 0 19 -2 35 -5 35 -3 0 -5 -11 -5 -25z"/>
<path d="M9445 5980 c-4 -6 7 -10 24 -10 17 0 31 5 31 10 0 6 -11 10 -24 10
-14 0 -28 -4 -31 -10z"/>
<path d="M9540 5980 c0 -5 14 -10 30 -10 17 0 30 5 30 10 0 6 -13 10 -30 10
-16 0 -30 -4 -30 -10z"/>
<path d="M9640 5980 c0 -5 14 -10 30 -10 17 0 30 5 30 10 0 6 -13 10 -30 10
-16 0 -30 -4 -30 -10z"/>
<path d="M9735 5980 c-4 -6 7 -10 24 -10 17 0 31 5 31 10 0 6 -11 10 -24 10
-14 0 -28 -4 -31 -10z"/>
<path d="M9168 5924 c-5 -4 -8 -16 -8 -26 0 -11 -7 -18 -20 -18 -11 0 -20 -4
-20 -10 0 -5 9 -10 20 -10 13 0 20 -7 20 -20 0 -11 5 -20 10 -20 6 0 10 9 10
20 0 13 7 20 19 20 11 0 23 5 26 10 3 6 -5 10 -19 10 -19 0 -25 6 -28 26 -2
14 -6 22 -10 18z"/>
<path d="M3535 5900 c4 -6 132 -10 351 -10 223 0 344 4 344 10 0 6 -124 10
-351 10 -231 0 -348 -3 -344 -10z"/>
<path d="M5420 5900 c0 -6 78 -10 214 -10 133 0 217 4 221 10 4 7 -70 10 -214
10 -141 0 -221 -4 -221 -10z"/>
<path d="M6240 5889 c-14 -6 -46 -30 -71 -55 -40 -39 -47 -43 -59 -30 -7 9
-19 16 -27 16 -22 0 -27 -29 -7 -51 18 -20 15 -22 -124 -162 -86 -86 -142
-150 -142 -162 0 -11 -7 -28 -15 -38 -7 -11 -11 -25 -8 -33 4 -12 -32 -14
-226 -14 l-231 0 0 -185 0 -185 -25 0 c-36 0 -71 -19 -84 -47 -6 -13 -11 -71
-11 -129 0 -98 2 -107 25 -129 16 -17 35 -25 60 -25 l35 0 0 -90 0 -90 -280 0
c-307 0 -332 -4 -367 -56 -16 -26 -19 -67 -26 -504 -9 -596 -9 -712 0 -1200 9
-426 8 -421 64 -454 24 -14 94 -16 648 -16 l621 0 0 -140 c0 -163 -12 -210
-79 -309 l-42 -61 601 0 c330 0 600 3 600 8 0 4 -18 34 -40 67 -59 88 -70 135
-70 297 l0 138 625 0 625 0 38 34 37 34 3 161 3 161 330 0 c213 0 329 4 329
10 0 6 -117 10 -330 10 l-330 0 0 194 c0 174 2 198 21 241 19 42 20 62 17 203
-2 130 -6 161 -20 182 -16 22 -18 54 -18 302 l0 278 75 0 c63 0 76 3 85 19 14
27 14 955 0 982 -10 18 -26 19 -420 19 l-410 0 0 140 0 140 -847 0 -848 0 140
140 c130 130 140 138 157 123 19 -17 48 -11 48 10 0 8 -7 20 -15 27 -13 11 -8
21 40 71 71 74 74 122 8 157 -25 14 -30 14 -63 1z m47 -37 c9 -6 -4 -25 -44
-65 -52 -52 -59 -56 -73 -42 -14 14 -10 21 37 65 53 52 60 55 80 42z m-137
-157 l24 -26 -138 -138 c-84 -85 -144 -137 -153 -134 -7 3 -20 0 -28 -7 -19
-16 -33 -4 -17 12 7 7 12 21 12 32 0 13 49 70 132 153 73 73 135 133 139 133
3 0 16 -11 29 -25z m-350 -380 c0 -2 -18 -32 -40 -66 -22 -34 -40 -66 -40 -71
0 -4 -80 -8 -177 -8 l-178 0 0 75 0 75 218 0 c119 0 217 -2 217 -5z m1780 -70
l0 -75 -842 0 -843 0 -35 67 c-19 37 -36 70 -38 75 -2 4 393 8 877 8 l881 0 0
-75z m-1745 -45 c32 -64 32 -95 -1 -117 -24 -15 -29 -15 -53 -2 -37 21 -38 58
-4 119 15 27 29 50 30 50 2 0 14 -22 28 -50z m-125 -89 c0 -32 41 -71 80 -77
47 -7 98 25 107 66 l6 30 844 0 844 0 -3 -22 c-3 -21 -9 -23 -68 -26 -46 -2
-69 -7 -77 -19 -10 -13 -13 -128 -13 -493 0 -365 3 -480 13 -493 8 -12 31 -17
77 -19 l65 -3 0 -675 0 -675 -1110 0 -1110 0 -3 978 -2 977 64 0 c49 0 69 5
90 21 25 20 26 23 26 139 0 152 -7 162 -109 168 l-71 4 0 69 0 69 175 0 c167
0 175 -1 175 -19z m2700 -121 l0 -50 -465 0 -465 0 0 50 0 50 465 0 465 0 0
-50z m-2922 -52 c13 -13 17 -192 6 -222 -5 -13 -25 -16 -113 -16 -70 0 -111 4
-119 12 -8 8 -12 48 -12 113 0 65 4 105 12 113 8 8 48 12 113 12 65 0 105 -4
113 -12z m2922 -438 l0 -400 -465 0 -465 0 0 400 0 400 465 0 465 0 0 -400z
m-3080 -120 l0 -60 -250 0 -250 0 0 -395 0 -395 -49 0 c-27 0 -56 -3 -65 -6
-14 -6 -16 36 -16 430 l0 437 25 24 24 25 291 0 290 0 0 -60z m0 -475 l0 -375
-235 0 -235 0 0 375 0 375 235 0 235 0 0 -375z m2758 -112 l2 -263 -235 0
-235 0 0 258 c0 142 3 262 7 266 4 3 108 5 232 4 l226 -3 3 -262z m162 0 l0
-268 -65 3 -65 4 0 257 c0 142 3 261 7 264 3 4 33 7 65 7 l58 0 0 -267z
m-3330 -422 c0 -90 3 -110 16 -115 9 -3 20 -4 25 0 5 3 9 54 9 115 l0 109 125
0 125 0 0 -104 c0 -81 3 -106 15 -116 28 -23 38 3 36 88 -3 97 5 132 29 132
11 0 22 -5 25 -11 4 -6 4 -93 0 -195 l-7 -184 -292 0 c-219 0 -296 3 -308 13
-13 10 -17 43 -23 169 l-7 157 26 25 c23 24 32 26 116 26 l90 0 0 -109z m2750
0 c0 -92 3 -110 17 -115 28 -11 35 9 36 115 l2 104 123 3 122 3 0 -104 c0 -81
3 -107 15 -117 12 -10 18 -10 30 0 12 10 15 36 15 116 l0 104 98 0 c147 0 142
6 142 -195 0 -135 -3 -166 -16 -179 -13 -14 -56 -16 -318 -16 l-304 0 -7 184
c-4 102 -4 189 0 195 3 6 15 11 26 11 18 0 19 -8 19 -109z m-2874 -341 l34 0
0 -185 0 -185 1645 0 1645 0 0 185 0 185 49 0 c27 0 56 3 65 6 14 6 16 -29 16
-345 l0 -352 -25 -24 -24 -25 -1730 0 -1730 0 -20 26 c-20 26 -21 38 -21 377
l0 350 31 -7 c17 -3 47 -6 65 -6z m534 -165 l0 -165 -235 0 -235 0 0 165 0
165 235 0 235 0 0 -165z m2758 3 l-3 -163 -232 -3 -233 -2 0 165 0 165 235 0
235 0 -2 -162z m-1166 -775 c3 -170 0 -154 76 -305 2 -5 -233 -8 -522 -8 -289
0 -526 2 -526 4 0 2 12 24 26 50 42 74 54 138 54 284 l0 132 444 0 444 0 4
-157z"/>
<path d="M7100 5265 c-17 -20 -5 -45 20 -45 11 0 23 7 26 15 6 15 -11 45 -26
45 -4 0 -13 -7 -20 -15z"/>
<path d="M7220 5265 c-17 -20 -5 -45 20 -45 11 0 23 7 26 15 6 15 -11 45 -26
45 -4 0 -13 -7 -20 -15z"/>
<path d="M7340 5265 c-18 -21 -5 -45 25 -45 20 0 25 5 25 24 0 13 -7 27 -16
30 -21 8 -20 8 -34 -9z"/>
<path d="M5660 4983 c-45 -17 -50 -31 -50 -158 0 -166 -1 -165 161 -165 114 0
121 1 144 25 24 23 25 31 25 135 0 110 0 112 -29 141 -29 28 -31 29 -133 28
-57 0 -110 -3 -118 -6z m228 -45 c12 -16 13 -196 0 -220 -7 -15 -24 -18 -108
-18 -54 0 -105 3 -114 6 -13 5 -16 25 -16 119 0 81 4 115 13 118 28 12 215 7
225 -5z"/>
<path d="M7547 5004 c-8 -8 1 -24 14 -24 5 0 9 7 9 15 0 15 -12 20 -23 9z"/>
<path d="M7615 5001 c-7 -12 12 -24 25 -16 11 7 4 25 -10 25 -5 0 -11 -4 -15
-9z"/>
<path d="M7690 4995 c0 -9 5 -15 11 -13 6 2 11 8 11 13 0 5 -5 11 -11 13 -6 2
-11 -4 -11 -13z"/>
<path d="M7530 4810 c0 -13 7 -20 20 -20 13 0 20 7 20 20 0 13 -7 20 -20 20
-13 0 -20 -7 -20 -20z"/>
<path d="M7625 4819 c-15 -24 17 -29 156 -27 120 3 144 5 144 18 0 13 -24 15
-147 18 -100 2 -149 -1 -153 -9z"/>
<path d="M8100 4810 c0 -19 7 -20 115 -20 108 0 115 1 115 20 0 19 -7 20 -115
20 -108 0 -115 -1 -115 -20z"/>
<path d="M7530 4710 c0 -13 7 -20 20 -20 13 0 20 7 20 20 0 13 -7 20 -20 20
-13 0 -20 -7 -20 -20z"/>
<path d="M7687 4723 c-4 -3 -7 -12 -7 -20 0 -10 34 -13 165 -13 158 0 165 1
165 20 0 19 -7 20 -158 20 -87 0 -162 -3 -165 -7z"/>
<path d="M7530 4610 c0 -13 7 -20 20 -20 13 0 20 7 20 20 0 13 -7 20 -20 20
-13 0 -20 -7 -20 -20z"/>
<path d="M7655 4620 c-13 -21 8 -30 71 -30 57 0 65 2 62 18 -3 14 -15 18 -65
20 -35 2 -64 -2 -68 -8z"/>
<path d="M7827 4624 c-4 -4 -7 -13 -7 -21 0 -9 18 -13 66 -13 57 0 65 2 62 18
-2 13 -15 18 -58 20 -31 2 -59 0 -63 -4z"/>
<path d="M7985 4620 c-16 -25 13 -30 176 -30 162 0 169 1 169 20 0 19 -7 20
-169 20 -103 0 -172 -4 -176 -10z"/>
<path d="M7530 4507 c0 -16 6 -23 20 -23 14 0 20 7 20 23 0 16 -6 23 -20 23
-14 0 -20 -7 -20 -23z"/>
<path d="M7710 4510 c0 -20 4 -20 193 -18 163 3 192 5 192 18 0 13 -29 15
-192 18 -189 2 -193 2 -193 -18z"/>
<path d="M7530 4405 c0 -18 5 -25 20 -25 15 0 20 7 20 25 0 18 -5 25 -20 25
-15 0 -20 -7 -20 -25z"/>
<path d="M7625 4420 c-20 -32 13 -36 266 -33 139 2 254 5 257 8 2 2 2 11 -1
20 -6 13 -41 15 -261 15 -166 0 -257 -4 -261 -10z"/>
<path d="M7530 4305 c0 -18 5 -25 20 -25 15 0 20 7 20 25 0 18 -5 25 -20 25
-15 0 -20 -7 -20 -25z"/>
<path d="M7715 4320 c-15 -24 12 -30 149 -30 78 0 146 3 149 7 4 3 2 12 -4 20
-14 16 -284 19 -294 3z"/>
<path d="M8054 4315 c-10 -26 7 -35 70 -35 64 0 96 16 81 40 -10 16 -145 13
-151 -5z"/>
<path d="M7530 4205 c0 -18 5 -25 20 -25 15 0 20 7 20 25 0 18 -5 25 -20 25
-15 0 -20 -7 -20 -25z"/>
<path d="M7984 4215 c-12 -30 7 -35 145 -35 138 0 166 7 154 36 -8 21 -291 20
-299 -1z"/>
<path d="M6840 5855 l-44 -45 49 -50 c33 -33 52 -47 59 -40 7 7 -3 23 -29 50
l-39 40 37 38 c33 33 39 52 17 52 -3 0 -26 -20 -50 -45z"/>
<path d="M7580 5888 c0 -7 14 -27 32 -45 l32 -33 -37 -38 c-42 -42 -45 -52
-19 -52 10 0 38 20 62 45 l44 45 -44 45 c-43 44 -70 57 -70 33z"/>
<path d="M9370 5820 c0 -7 142 -10 405 -10 263 0 405 3 405 10 0 7 -142 10
-405 10 -263 0 -405 -3 -405 -10z"/>
<path d="M8361 5796 c-16 -16 -19 -26 -11 -31 13 -8 62 34 54 46 -8 14 -19 10
-43 -15z"/>
<path d="M8806 5811 c-3 -4 6 -19 19 -31 19 -18 28 -21 37 -12 9 9 7 16 -7 32
-19 21 -40 26 -49 11z"/>
<path d="M4567 5772 c-22 -24 -21 -45 3 -67 45 -40 105 20 65 65 -23 25 -47
25 -68 2z m58 -32 c0 -18 -6 -26 -23 -28 -27 -4 -40 22 -22 44 19 22 45 13 45
-16z"/>
<path d="M4770 5725 c0 -8 7 -15 15 -15 8 0 15 7 15 15 0 8 -7 15 -15 15 -8 0
-15 -7 -15 -15z"/>
<path d="M4840 5724 c0 -9 7 -14 17 -12 25 5 28 28 4 28 -12 0 -21 -6 -21 -16z"/>
<path d="M4910 5725 c0 -8 9 -15 20 -15 11 0 20 7 20 15 0 8 -9 15 -20 15 -11
0 -20 -7 -20 -15z"/>
<path d="M4980 5725 c0 -8 9 -15 20 -15 11 0 20 7 20 15 0 8 -9 15 -20 15 -11
0 -20 -7 -20 -15z"/>
<path d="M5060 5725 c0 -8 7 -15 15 -15 8 0 15 7 15 15 0 8 -7 15 -15 15 -8 0
-15 -7 -15 -15z"/>
<path d="M5130 5725 c0 -8 7 -15 15 -15 8 0 15 7 15 15 0 8 -7 15 -15 15 -8 0
-15 -7 -15 -15z"/>
<path d="M5200 5725 c0 -8 7 -15 15 -15 8 0 15 7 15 15 0 8 -7 15 -15 15 -8 0
-15 -7 -15 -15z"/>
<path d="M5270 5724 c0 -9 7 -14 17 -12 25 5 28 28 4 28 -12 0 -21 -6 -21 -16z"/>
<path d="M5340 5725 c0 -8 9 -15 20 -15 11 0 20 7 20 15 0 8 -9 15 -20 15 -11
0 -20 -7 -20 -15z"/>
<path d="M5412 5728 c7 -19 38 -22 38 -4 0 10 -9 16 -21 16 -12 0 -19 -5 -17
-12z"/>
<path d="M5490 5724 c0 -8 5 -12 10 -9 6 3 10 10 10 16 0 5 -4 9 -10 9 -5 0
-10 -7 -10 -16z"/>
<path d="M8270 5705 c-16 -17 -20 -29 -14 -35 14 -14 56 31 45 48 -5 9 -14 5
-31 -13z"/>
<path d="M8912 5717 c-17 -20 32 -67 50 -49 10 10 7 18 -13 38 -21 21 -28 23
-37 11z"/>
<path d="M2320 5710 c0 -6 121 -10 344 -10 219 0 347 4 351 10 4 7 -113 10
-344 10 -227 0 -351 -4 -351 -10z"/>
<path d="M7881 5648 c-1 -23 -6 -28 -27 -28 -14 0 -23 -4 -19 -10 3 -5 15 -10
25 -10 11 0 20 -9 23 -22 l4 -23 2 23 c1 16 7 22 26 22 14 0 25 5 25 10 0 6
-11 10 -24 10 -19 0 -26 6 -29 28 l-4 27 -2 -27z"/>
<path d="M3207 5598 c-34 -27 -37 -64 -37 -517 0 -462 3 -501 40 -521 11 -6
133 -10 292 -10 221 0 278 3 294 14 17 13 19 31 24 218 l5 203 118 0 117 0 0
213 0 212 -120 0 -120 0 0 78 c0 69 -3 81 -23 100 -23 21 -30 22 -298 22 -205
0 -279 -3 -292 -12z m483 -168 c0 -18 -7 -20 -65 -20 l-65 0 2 -212 3 -213 63
3 62 3 0 -136 0 -135 -195 0 -195 0 0 358 c0 197 3 362 7 365 3 4 91 7 195 7
181 0 188 -1 188 -20z m317 -312 c-1 -46 -3 -9 -3 82 0 91 2 128 3 83 2 -46 2
-120 0 -165z m-180 195 c9 -26 25 -34 41 -21 18 16 52 -16 35 -33 -14 -14 -6
-39 13 -39 8 0 14 -9 14 -20 0 -11 -6 -20 -14 -20 -19 0 -27 -25 -13 -39 8 -8
7 -16 -6 -28 -12 -13 -20 -14 -28 -6 -14 14 -39 6 -39 -14 0 -9 -8 -13 -22
-11 -13 2 -21 7 -20 12 6 16 -28 29 -42 17 -18 -15 -45 14 -28 31 13 13 5 38
-13 38 -8 0 -17 5 -20 10 -8 13 14 42 25 35 13 -8 19 22 7 34 -17 17 17 48 36
32 12 -9 18 -6 31 14 19 29 34 32 43 8z"/>
<path d="M3788 5229 c-38 -22 -5 -79 36 -63 21 8 21 60 0 68 -19 7 -15 8 -36
-5z"/>
<path d="M6516 5594 c-22 -21 -20 -47 5 -70 19 -17 23 -17 47 -3 32 17 39 50
17 73 -21 20 -49 21 -69 0z m61 -20 c8 -21 -19 -46 -40 -38 -17 6 -23 35 -10
47 12 13 44 7 50 -9z"/>
<path d="M4274 5505 c-4 -9 -2 -21 4 -27 15 -15 44 -1 40 19 -4 23 -36 29 -44
8z m36 -10 c0 -8 -7 -15 -15 -15 -8 0 -15 7 -15 15 0 8 7 15 15 15 8 0 15 -7
15 -15z"/>
<path d="M10078 5464 c-5 -4 -8 -16 -8 -26 0 -11 -7 -18 -19 -18 -11 0 -23 -4
-26 -10 -4 -6 5 -10 19 -10 21 0 26 -5 26 -24 0 -14 5 -28 10 -31 6 -4 10 7
10 24 0 28 3 31 31 31 17 0 28 4 24 10 -3 6 -17 10 -30 10 -18 0 -24 6 -27 26
-2 14 -6 22 -10 18z"/>
<path d="M7717 5394 c-4 -4 -4 -11 -1 -15 3 -5 185 -9 405 -9 316 0 400 3 397
13 -4 9 -94 13 -400 15 -217 1 -397 -1 -401 -4z"/>
<path d="M4160 5276 c0 -17 32 -15 38 2 2 7 -6 12 -17 12 -12 0 -21 -6 -21
-14z"/>
<path d="M4230 5280 c0 -5 9 -10 20 -10 11 0 20 5 20 10 0 6 -9 10 -20 10 -11
0 -20 -4 -20 -10z"/>
<path d="M4302 5278 c6 -17 38 -19 38 -2 0 8 -9 14 -21 14 -11 0 -19 -5 -17
-12z"/>
<path d="M4376 5277 c3 -8 11 -14 19 -14 8 0 15 6 15 14 0 7 -9 13 -20 13 -12
0 -17 -5 -14 -13z"/>
<path d="M4450 5277 c0 -8 7 -14 15 -14 8 0 15 6 15 14 0 7 -7 13 -15 13 -8 0
-15 -6 -15 -13z"/>
<path d="M4520 5275 c0 -8 7 -15 15 -15 8 0 15 7 15 15 0 8 -7 15 -15 15 -8 0
-15 -7 -15 -15z"/>
<path d="M4590 5277 c0 -8 7 -14 15 -14 8 0 16 6 19 14 3 8 -2 13 -14 13 -11
0 -20 -6 -20 -13z"/>
<path d="M4660 5281 c0 -11 26 -22 34 -14 12 12 5 23 -14 23 -11 0 -20 -4 -20
-9z"/>
<path d="M4732 5278 c7 -19 38 -22 38 -4 0 10 -9 16 -21 16 -12 0 -19 -5 -17
-12z"/>
<path d="M4802 5278 c6 -17 38 -19 38 -2 0 8 -9 14 -21 14 -11 0 -19 -5 -17
-12z"/>
<path d="M4880 5274 c0 -8 5 -12 10 -9 6 3 10 10 10 16 0 5 -4 9 -10 9 -5 0
-10 -7 -10 -16z"/>
<path d="M9569 5249 c-17 -33 3 -69 39 -69 33 0 52 16 52 45 0 29 -19 45 -52
45 -18 0 -31 -7 -39 -21z m65 -11 c15 -24 -10 -51 -35 -37 -22 11 -24 30 -7
47 15 15 28 11 42 -10z"/>
<path d="M8005 5240 c-4 -7 132 -10 400 -10 268 0 404 3 400 10 -4 6 -148 10
-400 10 -252 0 -396 -4 -400 -10z"/>
<path d="M8890 5240 c0 -6 58 -10 155 -10 97 0 155 4 155 10 0 6 -58 10 -155
10 -97 0 -155 -4 -155 -10z"/>
<path d="M9330 4990 l0 -100 -203 0 c-145 0 -206 -3 -215 -12 -17 -17 -17
-539 0 -556 9 -9 70 -12 215 -12 l203 0 0 -90 c0 -73 3 -90 15 -90 12 0 15 16
16 75 1 41 2 81 3 88 1 9 50 13 200 15 127 1 204 6 213 13 10 9 13 69 13 279
0 210 -3 270 -13 279 -9 7 -86 12 -213 13 l-199 3 0 97 c0 87 -2 98 -17 98
-16 0 -18 -11 -18 -100z m0 -155 c0 -13 -26 -15 -177 -15 l-178 0 0 -220 0
-220 178 0 c151 0 177 -2 177 -15 0 -13 -28 -15 -195 -15 l-195 0 0 250 0 250
195 0 c167 0 195 -2 195 -15z m428 -235 l-3 -251 -195 0 c-168 0 -195 2 -198
15 -3 14 19 16 177 16 l181 0 0 220 0 220 -180 0 c-153 0 -180 2 -180 15 0 13
29 15 200 15 l200 0 -2 -250z m-428 0 l0 -180 -160 0 -160 0 0 180 0 180 160
0 160 0 0 -180z m350 0 l0 -180 -161 0 -162 0 7 92 c3 50 6 131 6 180 l0 88
155 0 155 0 0 -180z"/>
<path d="M9750 5030 c0 -6 93 -10 260 -10 167 0 260 4 260 10 0 6 -93 10 -260
10 -167 0 -260 -4 -260 -10z"/>
<path d="M4463 4980 c-36 -14 -43 -43 -43 -163 0 -106 2 -115 23 -135 21 -20
34 -22 139 -22 161 0 162 1 166 154 l4 116 -30 30 c-30 30 -32 30 -134 29 -57
0 -113 -4 -125 -9z m7 -152 l-5 -113 -3 99 c-2 88 1 126 10 126 2 0 1 -51 -2
-112z m220 -118 c-8 -5 -60 -9 -115 -8 l-100 2 105 6 c58 3 110 7 115 8 6 1 3
-3 -5 -8z"/>
<path d="M4870 4983 c-46 -18 -50 -31 -50 -160 0 -165 -2 -163 158 -163 111 0
120 1 140 23 20 21 22 34 22 144 0 157 0 157 -149 160 -58 1 -113 0 -121 -4z
m219 -42 c16 -11 25 -183 11 -218 -9 -22 -15 -23 -118 -23 -71 0 -112 4 -120
12 -15 15 -16 191 -2 219 10 17 22 19 113 19 56 0 108 -4 116 -9z"/>
<path d="M9090 4970 c0 -16 7 -20 35 -20 28 0 35 4 35 20 0 16 -7 20 -35 20
-28 0 -35 -4 -35 -20z"/>
<path d="M9240 4970 c0 -17 7 -20 40 -20 33 0 40 3 40 20 0 17 -7 20 -40 20
-33 0 -40 -3 -40 -20z"/>
<path d="M9400 4969 c0 -17 5 -20 37 -17 25 2 37 8 39 21 2 14 -5 17 -37 17
-33 0 -39 -3 -39 -21z"/>
<path d="M9550 4970 c0 -16 7 -20 30 -20 23 0 30 4 30 20 0 16 -7 20 -30 20
-23 0 -30 -4 -30 -20z"/>
<path d="M2718 4794 c-5 -4 -8 -16 -8 -26 0 -11 -7 -18 -20 -18 -11 0 -20 -5
-20 -11 0 -6 9 -9 20 -6 16 4 20 0 20 -19 0 -13 5 -24 10 -24 6 0 10 9 10 20
0 13 7 20 19 20 11 0 23 5 26 10 3 6 -5 10 -19 10 -19 0 -25 6 -28 26 -2 14
-6 22 -10 18z"/>
<path d="M9910 4585 c0 -8 7 -15 15 -15 8 0 15 7 15 15 0 8 -7 15 -15 15 -8 0
-15 -7 -15 -15z"/>
<path d="M9980 4585 c0 -8 7 -15 15 -15 8 0 15 7 15 15 0 8 -7 15 -15 15 -8 0
-15 -7 -15 -15z"/>
<path d="M10050 4585 c0 -8 7 -15 15 -15 8 0 15 7 15 15 0 8 -7 15 -15 15 -8
0 -15 -7 -15 -15z"/>
<path d="M10120 4584 c0 -9 7 -14 17 -12 25 5 28 28 4 28 -12 0 -21 -6 -21
-16z"/>
<path d="M10190 4585 c0 -8 9 -15 20 -15 11 0 20 7 20 15 0 8 -9 15 -20 15
-11 0 -20 -7 -20 -15z"/>
<path d="M10260 4585 c0 -8 9 -15 20 -15 11 0 20 7 20 15 0 8 -9 15 -20 15
-11 0 -20 -7 -20 -15z"/>
<path d="M10340 4585 c0 -8 7 -15 15 -15 8 0 15 7 15 15 0 8 -7 15 -15 15 -8
0 -15 -7 -15 -15z"/>
<path d="M10410 4585 c0 -8 7 -15 15 -15 8 0 15 7 15 15 0 8 -7 15 -15 15 -8
0 -15 -7 -15 -15z"/>
<path d="M10480 4585 c0 -8 7 -15 15 -15 8 0 15 7 15 15 0 8 -7 15 -15 15 -8
0 -15 -7 -15 -15z"/>
<path d="M10550 4585 c0 -8 7 -15 15 -15 8 0 15 7 15 15 0 8 -7 15 -15 15 -8
0 -15 -7 -15 -15z"/>
<path d="M10620 4585 c0 -8 5 -15 10 -15 6 0 10 7 10 15 0 8 -4 15 -10 15 -5
0 -10 -7 -10 -15z"/>
<path d="M2286 4514 c-32 -32 -14 -84 30 -84 41 0 63 51 34 80 -24 24 -43 25
-64 4z m53 -18 c15 -18 3 -46 -20 -46 -22 0 -34 22 -25 45 7 19 30 19 45 1z"/>
<path d="M3780 4480 c0 -6 45 -10 115 -10 70 0 115 4 115 10 0 6 -45 10 -115
10 -70 0 -115 -4 -115 -10z"/>
<path d="M4090 4480 c0 -6 80 -10 220 -10 140 0 220 4 220 10 0 6 -80 10 -220
10 -140 0 -220 -4 -220 -10z"/>
<path d="M10508 4344 c-5 -4 -8 -18 -8 -30 0 -17 -7 -24 -27 -27 l-28 -4 28
-2 c22 -1 27 -6 27 -25 0 -35 18 -42 22 -9 2 23 9 29 33 32 l30 4 -30 6 c-23
5 -31 13 -35 34 -3 16 -8 25 -12 21z"/>
<path d="M2725 4270 c-4 -7 110 -10 334 -10 188 0 344 0 348 -1 4 0 9 4 11 10
5 15 -684 15 -693 1z"/>
<path d="M9080 4250 c0 -16 7 -20 30 -20 23 0 30 4 30 20 0 16 -7 20 -30 20
-23 0 -30 -4 -30 -20z"/>
<path d="M9220 4250 c0 -17 7 -20 40 -20 33 0 40 3 40 20 0 17 -7 20 -40 20
-33 0 -40 -3 -40 -20z"/>
<path d="M9380 4250 c0 -16 7 -20 35 -20 28 0 35 4 35 20 0 16 -7 20 -35 20
-28 0 -35 -4 -35 -20z"/>
<path d="M9530 4250 c0 -17 7 -20 40 -20 33 0 40 3 40 20 0 17 -7 20 -40 20
-33 0 -40 -3 -40 -20z"/>
<path d="M8610 4080 c-11 -7 -6 -10 20 -10 26 0 31 3 20 10 -8 5 -17 10 -20
10 -3 0 -12 -5 -20 -10z"/>
<path d="M3075 4060 c-3 -5 4 -12 17 -15 13 -3 248 -4 522 -3 389 2 500 6 504
16 3 9 -105 12 -517 12 -325 0 -522 -4 -526 -10z"/>
<path d="M4311 4056 c-7 -8 -11 -27 -9 -43 6 -51 88 -41 88 11 0 42 -53 63
-79 32z m63 -21 c4 -12 -17 -45 -29 -45 -2 0 -10 7 -19 15 -20 20 -10 45 19
45 13 0 25 -7 29 -15z"/>
<path d="M2680 3925 c0 -20 -5 -25 -24 -25 -14 0 -28 -4 -31 -10 -4 -6 7 -10
24 -10 28 0 31 -3 31 -31 0 -17 4 -28 10 -24 6 3 10 17 10 31 0 19 5 24 25 24
14 0 25 5 25 10 0 6 -11 10 -25 10 -20 0 -25 5 -25 25 0 14 -4 25 -10 25 -5 0
-10 -11 -10 -25z"/>
<path d="M10142 3928 c-35 -35 14 -102 57 -79 11 6 23 20 26 32 13 41 -52 78
-83 47z m65 -24 c8 -21 -19 -46 -40 -38 -17 6 -23 35 -10 47 12 13 44 7 50 -9z"/>
<path d="M3640 3810 c0 -82 3 -100 15 -100 25 0 17 -18 -15 -35 -42 -22 -63
-68 -56 -120 5 -29 -1 -76 -19 -153 -25 -105 -35 -126 -50 -102 -9 15 -35 12
-35 -3 0 -8 10 -23 23 -35 l24 -22 -38 -162 c-21 -88 -36 -165 -33 -170 3 -4
21 -8 40 -8 27 0 34 4 34 19 0 11 -6 21 -14 23 -10 2 -1 35 37 134 l49 131 42
-9 c22 -5 66 -6 96 -3 l56 6 47 -123 c26 -68 47 -135 47 -150 0 -23 4 -28 25
-28 33 0 33 10 -10 193 l-36 152 26 18 c14 10 25 25 25 33 0 17 -31 19 -48 2
-14 -14 -13 -17 -46 130 -14 62 -26 130 -26 151 0 43 -29 87 -66 101 -27 11
-32 30 -9 30 12 0 15 18 15 100 l0 100 -50 0 -50 0 0 -100z m60 0 c0 -33 -4
-60 -10 -60 -6 0 -10 27 -10 60 0 33 4 60 10 60 6 0 10 -27 10 -60z m34 -181
c48 -38 22 -119 -39 -119 -31 0 -75 41 -75 70 0 26 43 70 68 70 11 0 31 -9 46
-21z m69 -270 c15 -64 30 -125 33 -135 4 -10 4 -17 1 -13 -4 3 -28 63 -55 134
-44 116 -47 131 -33 142 21 15 23 12 54 -128z m-143 107 c0 -2 -23 -61 -51
-132 -27 -71 -48 -118 -45 -104 49 225 59 259 78 249 10 -5 18 -11 18 -13z
m83 -126 c42 -108 41 -110 -43 -110 -86 0 -86 2 -43 118 21 55 41 98 44 94 3
-4 22 -50 42 -102z"/>
<path d="M3675 3591 c-8 -15 3 -31 21 -31 9 0 14 7 12 17 -4 20 -24 28 -33 14z"/>
<path d="M9823 3902 c-208 -4 -202 -22 7 -22 93 0 160 4 160 9 0 16 -8 16
-167 13z"/>
<path d="M8515 3890 c4 -6 190 -10 526 -10 339 0 519 3 519 10 0 7 -182 10
-526 10 -347 0 -523 -3 -519 -10z"/>
<path d="M3350 3755 c-10 -12 -10 -18 0 -30 16 -19 39 -19 46 0 6 15 -11 45
-26 45 -4 0 -13 -7 -20 -15z m36 -6 c8 -14 -11 -33 -25 -25 -11 7 -4 36 9 36
5 0 12 -5 16 -11z"/>
<path d="M9135 3750 c4 -6 132 -10 351 -10 223 0 344 4 344 10 0 6 -124 10
-351 10 -231 0 -348 -3 -344 -10z"/>
<path d="M8934 3670 c-71 -28 -137 -89 -171 -158 -38 -77 -39 -190 -4 -270 22
-49 118 -152 142 -152 5 0 9 -54 9 -120 0 -106 2 -121 18 -126 9 -3 25 -10 34
-15 24 -12 168 -12 168 1 0 6 11 10 25 10 l25 0 0 123 0 122 36 20 c47 25 92
77 122 143 21 48 24 64 20 140 -5 101 -24 145 -89 209 -61 61 -119 85 -209 90
-58 2 -87 -1 -126 -17z m209 -36 c64 -22 129 -82 158 -146 28 -63 31 -163 6
-220 -20 -48 -89 -122 -132 -143 -22 -10 -35 -23 -35 -35 0 -18 -7 -20 -95
-20 -86 0 -95 2 -95 19 0 11 -19 30 -48 48 -191 118 -172 394 33 489 60 28
140 31 208 8z"/>
<path d="M9012 3588 c-7 -7 -12 -20 -12 -30 0 -23 -27 -35 -43 -19 -19 19 -55
12 -75 -14 -19 -24 -20 -59 -1 -70 13 -9 -2 -35 -20 -35 -26 0 -41 -21 -41
-55 0 -35 15 -55 41 -55 27 0 32 -17 13 -45 -16 -25 -16 -27 3 -53 22 -30 57
-40 78 -22 19 16 45 5 45 -18 0 -53 76 -56 100 -5 15 33 33 42 45 23 11 -18
51 -10 76 16 22 24 23 27 8 52 -18 32 -14 52 10 52 26 0 41 20 41 55 0 35 -15
55 -41 55 -24 0 -28 20 -10 52 15 25 14 28 -8 52 -25 26 -65 34 -76 16 -10
-17 -35 -11 -35 8 0 41 -69 69 -98 40z m50 -54 c2 -20 12 -30 41 -41 34 -14
39 -14 56 1 25 22 40 2 17 -23 -14 -15 -14 -20 1 -54 13 -27 23 -37 40 -37 14
0 23 -6 23 -15 0 -9 -9 -15 -23 -15 -17 0 -27 -10 -40 -37 -15 -34 -15 -39 -1
-54 23 -25 8 -45 -17 -23 -17 15 -22 15 -56 1 -29 -11 -39 -21 -41 -41 -4 -33
-22 -34 -22 -2 0 18 -10 29 -40 44 -39 19 -40 19 -56 0 -12 -12 -21 -15 -28
-8 -6 6 -4 16 7 28 16 17 16 22 2 55 -12 29 -21 37 -40 37 -16 0 -25 6 -25 15
0 9 9 15 25 15 19 0 28 8 40 37 14 33 14 38 -1 54 -22 24 -8 46 16 24 15 -14
23 -14 59 -3 35 11 41 17 41 40 0 36 18 37 22 2z"/>
<path d="M8989 3431 c-56 -57 -27 -145 53 -158 32 -5 41 -1 68 25 43 43 43
100 -1 136 -41 35 -83 34 -120 -3z m93 -28 c26 -23 23 -59 -7 -79 -23 -15 -27
-15 -50 0 -32 21 -33 59 -3 80 28 20 37 20 60 -1z"/>
<path d="M2780 3515 c0 -13 36 -15 260 -15 224 0 260 2 260 15 0 13 -36 15
-260 15 -224 0 -260 -2 -260 -15z"/>
<path d="M10068 3434 c-5 -4 -8 -16 -8 -26 0 -13 -7 -18 -25 -18 -14 0 -25 -4
-25 -10 0 -5 11 -10 25 -10 20 0 25 -5 25 -24 0 -14 5 -28 10 -31 6 -4 10 7
10 24 0 28 3 31 31 31 17 0 28 4 24 10 -3 6 -17 10 -30 10 -18 0 -24 6 -27 26
-2 14 -6 22 -10 18z"/>
<path d="M4091 3388 c0 -9 -9 -19 -18 -21 -16 -4 -16 -5 -1 -6 9 0 19 -11 21
-23 4 -23 4 -23 6 -1 0 12 9 24 19 26 15 4 15 5 0 6 -9 0 -19 9 -21 19 -4 15
-5 15 -6 0z"/>
<path d="M9476 3391 c-10 -16 5 -41 24 -41 19 0 34 25 24 41 -3 5 -14 9 -24 9
-10 0 -21 -4 -24 -9z m42 -13 c-3 -7 -11 -13 -18 -13 -7 0 -15 6 -17 13 -3 7
4 12 17 12 13 0 20 -5 18 -12z"/>
<path d="M2460 3339 c0 -18 2 -19 15 -5 8 8 15 17 15 20 0 3 -7 6 -15 6 -9 0
-15 -9 -15 -21z"/>
<path d="M2530 3350 c0 -5 14 -10 30 -10 17 0 30 5 30 10 0 6 -13 10 -30 10
-16 0 -30 -4 -30 -10z"/>
<path d="M2630 3350 c0 -5 14 -10 30 -10 17 0 30 5 30 10 0 6 -13 10 -30 10
-16 0 -30 -4 -30 -10z"/>
<path d="M2720 3350 c0 -5 14 -10 30 -10 17 0 30 5 30 10 0 6 -13 10 -30 10
-16 0 -30 -4 -30 -10z"/>
<path d="M2820 3350 c0 -5 14 -10 30 -10 17 0 30 5 30 10 0 6 -13 10 -30 10
-16 0 -30 -4 -30 -10z"/>
<path d="M2912 3320 c0 -19 2 -27 5 -17 2 9 2 25 0 35 -3 9 -5 1 -5 -18z"/>
<path d="M2462 3250 c0 -19 2 -27 5 -17 2 9 2 25 0 35 -3 9 -5 1 -5 -18z"/>
<path d="M2912 3220 c0 -19 2 -27 5 -17 2 9 2 25 0 35 -3 9 -5 1 -5 -18z"/>
<path d="M2463 3155 c0 -22 2 -30 4 -17 2 12 2 30 0 40 -3 9 -5 -1 -4 -23z"/>
<path d="M2640 3123 c0 -21 4 -33 8 -27 4 6 15 13 25 17 25 9 17 41 -11 45
-19 3 -22 -1 -22 -35z m40 12 c0 -8 -7 -15 -15 -15 -8 0 -15 7 -15 15 0 8 7
15 15 15 8 0 15 -7 15 -15z"/>
<path d="M2703 3136 c0 -16 3 -23 7 -16 6 9 9 9 12 -1 3 -8 5 -1 5 15 0 16 -3
23 -7 16 -6 -9 -9 -9 -12 1 -3 8 -5 1 -5 -15z"/>
<path d="M2913 3125 c0 -22 2 -30 4 -17 2 12 2 30 0 40 -3 9 -5 -1 -4 -23z"/>
<path d="M2462 3060 c0 -19 2 -27 5 -17 2 9 2 25 0 35 -3 9 -5 1 -5 -18z"/>
<path d="M9550 3070 c0 -6 127 -10 360 -10 233 0 360 4 360 10 0 6 -127 10
-360 10 -233 0 -360 -4 -360 -10z"/>
<path d="M2912 3030 c0 -19 2 -27 5 -17 2 9 2 25 0 35 -3 9 -5 1 -5 -18z"/>
<path d="M8480 2980 c-25 -25 -25 -42 0 -65 45 -40 105 20 65 65 -23 25 -40
25 -65 0z m55 -30 c0 -18 -6 -26 -23 -28 -27 -4 -40 22 -22 44 19 22 45 13 45
-16z"/>
<path d="M2462 2960 c0 -19 2 -27 5 -17 2 9 2 25 0 35 -3 9 -5 1 -5 -18z"/>
<path d="M2910 2935 c0 -20 -5 -25 -25 -25 -14 0 -25 -4 -25 -10 0 -5 14 -10
30 -10 28 0 30 3 30 35 0 19 -2 35 -5 35 -3 0 -5 -11 -5 -25z"/>
<path d="M3170 2921 c0 -16 6 -21 26 -21 33 0 30 33 -4 38 -17 3 -22 -2 -22
-17z"/>
<path d="M3270 2920 c0 -15 7 -20 25 -20 18 0 25 5 25 20 0 15 -7 20 -25 20
-18 0 -25 -5 -25 -20z"/>
<path d="M3377 2933 c-16 -15 -6 -33 18 -33 18 0 25 5 25 20 0 20 -28 28 -43
13z"/>
<path d="M3580 2920 c0 -15 7 -20 25 -20 18 0 25 5 25 20 0 15 -7 20 -25 20
-18 0 -25 -5 -25 -20z"/>
<path d="M3687 2933 c-16 -15 -6 -33 18 -33 18 0 25 5 25 20 0 20 -28 28 -43
13z"/>
<path d="M3790 2920 c0 -15 7 -20 25 -20 18 0 25 5 25 20 0 15 -7 20 -25 20
-18 0 -25 -5 -25 -20z"/>
<path d="M3998 2934 c-13 -13 5 -34 29 -34 18 0 24 5 21 18 -3 17 -38 29 -50
16z"/>
<path d="M4100 2920 c0 -15 7 -20 25 -20 18 0 25 5 25 20 0 15 -7 20 -25 20
-18 0 -25 -5 -25 -20z"/>
<path d="M4200 2920 c0 -11 7 -20 15 -20 8 0 15 9 15 20 0 11 -7 20 -15 20 -8
0 -15 -9 -15 -20z"/>
<path d="M2475 2900 c3 -5 17 -10 31 -10 13 0 24 5 24 10 0 6 -14 10 -31 10
-17 0 -28 -4 -24 -10z"/>
<path d="M2570 2900 c0 -5 11 -10 24 -10 14 0 28 5 31 10 4 6 -7 10 -24 10
-17 0 -31 -4 -31 -10z"/>
<path d="M2665 2900 c3 -5 17 -10 30 -10 13 0 27 5 30 10 4 6 -8 10 -30 10
-22 0 -34 -4 -30 -10z"/>
<path d="M2770 2900 c20 -13 50 -13 50 0 0 6 -15 10 -32 10 -25 0 -29 -3 -18
-10z"/>
<path d="M9981 2688 c0 -9 -9 -19 -18 -21 -16 -4 -16 -5 -1 -6 9 0 19 -11 21
-23 4 -23 4 -23 6 -1 1 14 9 23 24 26 22 4 22 4 0 6 -12 0 -24 9 -26 19 -4 15
-5 15 -6 0z"/>
<path d="M3433 2673 c-49 -19 36 -23 506 -23 472 0 566 4 515 24 -19 7 -1004
7 -1021 -1z"/>
<path d="M2740 2560 c0 -6 72 -10 195 -10 123 0 195 4 195 10 0 6 -72 10 -195
10 -123 0 -195 -4 -195 -10z"/>
<path d="M3190 2560 c0 -6 117 -10 331 -10 217 0 328 3 324 10 -4 6 -125 10
-331 10 -209 0 -324 -4 -324 -10z"/>
<path d="M8610 2560 c0 -7 182 -10 525 -10 343 0 525 3 525 10 0 7 -182 10
-525 10 -343 0 -525 -3 -525 -10z"/>
<path d="M8440 2265 c0 -8 7 -15 15 -15 8 0 15 7 15 15 0 8 -7 15 -15 15 -8 0
-15 -7 -15 -15z"/>
<path d="M8510 2265 c0 -9 6 -12 15 -9 8 4 15 10 15 15 0 5 -7 9 -15 9 -8 0
-15 -7 -15 -15z"/>
<path d="M8580 2264 c0 -9 7 -14 17 -12 25 5 28 28 4 28 -12 0 -21 -6 -21 -16z"/>
<path d="M8650 2270 c0 -5 9 -10 20 -10 11 0 20 5 20 10 0 6 -9 10 -20 10 -11
0 -20 -4 -20 -10z"/>
<path d="M8722 2268 c6 -17 38 -19 38 -2 0 8 -9 14 -21 14 -11 0 -19 -5 -17
-12z"/>
<path d="M8800 2267 c0 -8 7 -14 15 -14 8 0 15 6 15 14 0 7 -7 13 -15 13 -8 0
-15 -6 -15 -13z"/>
<path d="M8870 2267 c0 -8 7 -14 15 -14 8 0 15 6 15 14 0 7 -7 13 -15 13 -8 0
-15 -6 -15 -13z"/>
<path d="M8940 2267 c0 -8 7 -14 15 -14 8 0 15 6 15 14 0 7 -7 13 -15 13 -8 0
-15 -6 -15 -13z"/>
<path d="M9010 2266 c0 -9 7 -12 20 -9 11 3 20 9 20 14 0 5 -9 9 -20 9 -11 0
-20 -6 -20 -14z"/>
<path d="M9083 2268 c2 -7 10 -13 17 -13 7 0 15 6 18 13 2 7 -5 12 -18 12 -13
0 -20 -5 -17 -12z"/>
<path d="M9150 2271 c0 -6 5 -13 10 -16 6 -3 10 1 10 9 0 9 -4 16 -10 16 -5 0
-10 -4 -10 -9z"/>
<path d="M5620 1450 l0 -130 831 0 832 0 173 62 c96 35 174 65 174 68 0 3 -78
33 -174 68 l-173 62 -832 0 -831 0 0 -130z m1600 45 l0 -45 -780 0 -780 0 0
45 0 45 780 0 780 0 0 -45z m129 16 c62 -22 76 -32 82 -54 4 -16 3 -30 -4 -35
-11 -9 -151 -62 -163 -62 -2 0 -4 41 -4 90 0 50 3 90 8 89 4 0 40 -12 81 -28z
m-1682 -133 c-2 -13 -4 -3 -4 22 0 25 2 35 4 23 2 -13 2 -33 0 -45z m1543 -8
c0 -7 -261 -9 -767 -8 l-768 3 765 5 c421 3 766 6 768 8 1 1 2 -2 2 -8z"/>
</g>
</svg>
